<svg xmlns="http://www.w3.org/2000/svg" viewBox="0 0 400 400" role="img" aria-label="Violeta">
  <defs>
    <radialGradient id="bg" cx="50%" cy="36%" r="72%"><stop offset="0" stop-color="#fffaf6"/><stop offset="1" stop-color="#dac5ff"/></radialGradient>
    <filter id="s" x="-20%" y="-20%" width="140%" height="140%"><feDropShadow dx="0" dy="10" stdDeviation="12" flood-color="#40513b" flood-opacity=".20"/></filter>
  </defs>
  <rect width="400" height="400" rx="56" fill="url(#bg)"/>
  <path d="M191 292 C188 238 197 194 207 150" fill="none" stroke="#4f8a4f" stroke-width="14" stroke-linecap="round"/>
  <path d="M202 238 C160 218 128 224 101 253 C145 264 179 258 202 238Z" fill="#7bbf75" opacity=".90"/>
  <path d="M207 218 C250 198 286 206 312 238 C267 248 230 242 207 218Z" fill="#5fa969" opacity=".88"/>
  <g filter="url(#s)">
    <ellipse cx="200" cy="145" rx="50" ry="76" fill="#6a36a8" transform="rotate(0 200 190)"/>
    <ellipse cx="200" cy="235" rx="50" ry="76" fill="#6a36a8" transform="rotate(180 200 190)"/>
    <ellipse cx="155" cy="190" rx="50" ry="76" fill="#6a36a8" transform="rotate(-90 155 190)"/>
    <ellipse cx="245" cy="190" rx="50" ry="76" fill="#6a36a8" transform="rotate(90 245 190)"/>
    <ellipse cx="168" cy="158" rx="44" ry="68" fill="#6a36a8" opacity=".92" transform="rotate(-45 168 158)"/>
    <ellipse cx="232" cy="158" rx="44" ry="68" fill="#6a36a8" opacity=".92" transform="rotate(45 232 158)"/>
    <ellipse cx="168" cy="222" rx="44" ry="68" fill="#6a36a8" opacity=".92" transform="rotate(45 168 222)"/>
    <ellipse cx="232" cy="222" rx="44" ry="68" fill="#6a36a8" opacity=".92" transform="rotate(-45 232 222)"/>
    <circle cx="200" cy="190" r="36" fill="#f4d35e"/>
    <circle cx="200" cy="190" r="16" fill="#8b5e34" opacity=".55"/>
  </g>
</svg>